<svg width="20" height="20" viewBox="0 0 20 20" fill="none" xmlns="http://www.w3.org/2000/svg">
<path d="M6.11111 13.3333H7.77778V6.66667H4.44444V8.33333H6.11111V13.3333ZM10.5556 13.3333H13.3333C13.6481 13.3333 13.912 13.2269 14.125 13.0139C14.338 12.8009 14.4444 12.537 14.4444 12.2222V7.77778C14.4444 7.46296 14.338 7.19907 14.125 6.98611C13.912 6.77315 13.6481 6.66667 13.3333 6.66667H10.5556C10.2407 6.66667 9.97685 6.77315 9.76389 6.98611C9.55093 7.19907 9.44444 7.46296 9.44444 7.77778V12.2222C9.44444 12.537 9.55093 12.8009 9.76389 13.0139C9.97685 13.2269 10.2407 13.3333 10.5556 13.3333ZM11.1111 12.2222V10.5556H12.7778V12.2222H11.1111ZM11.1111 9.44444V7.77778H12.7778V9.44444H11.1111ZM2.22222 20C1.61111 20 1.08796 19.7824 0.652778 19.3472C0.217593 18.912 0 18.3889 0 17.7778V2.22222C0 1.61111 0.217593 1.08796 0.652778 0.652778C1.08796 0.217593 1.61111 0 2.22222 0H17.7778C18.3889 0 18.912 0.217593 19.3472 0.652778C19.7824 1.08796 20 1.61111 20 2.22222V17.7778C20 18.3889 19.7824 18.912 19.3472 19.3472C18.912 19.7824 18.3889 20 17.7778 20H2.22222ZM2.22222 17.7778H17.7778V2.22222H2.22222V17.7778Z" fill="#E85D04"/>
</svg>
